HIERARCHY
ROOT Hips
{
  OFFSET 0.000000 95.000000 0.000000
  CHANNELS 6 Xposition Yposition Zposition Zrotation Xrotation Yrotation
  JOINT Spine
  {
    OFFSET 0.000000 10.000000 0.000000
    CHANNELS 3 Zrotation Xrotation Yrotation
    JOINT Spine1
    {
      OFFSET 0.000000 12.000000 0.000000
      CHANNELS 3 Zrotation Xrotation Yrotation
      JOINT Spine2
      {
        OFFSET 0.000000 12.000000 0.000000
        CHANNELS 3 Zrotation Xrotation Yrotation
        JOINT Neck
        {
          OFFSET 0.000000 10.000000 0.000000
          CHANNELS 3 Zrotation Xrotation Yrotation
          JOINT Head
          {
            OFFSET 0.000000 8.000000 0.000000
            CHANNELS 3 Zrotation Xrotation Yrotation
            End Site
            {
              OFFSET 0.000000 10.000000 0.000000
            }
          }
        }
        JOINT LeftShoulder
        {
          OFFSET 6.000000 8.000000 0.000000
          CHANNELS 3 Zrotation Xrotation Yrotation
          JOINT LeftArm
          {
            OFFSET 12.000000 0.000000 0.000000
            CHANNELS 3 Zrotation Xrotation Yrotation
            JOINT LeftForeArm
            {
              OFFSET 24.000000 0.000000 0.000000
              CHANNELS 3 Zrotation Xrotation Yrotation
              JOINT LeftHand
              {
                OFFSET 22.000000 0.000000 0.000000
                CHANNELS 3 Zrotation Xrotation Yrotation
                JOINT LeftHandThumb1
                {
                  OFFSET 2.500000 -1.200000 1.500000
                  CHANNELS 3 Zrotation Xrotation Yrotation
                  JOINT LeftHandThumb2
                  {
                    OFFSET 2.500000 -0.400000 0.600000
                    CHANNELS 3 Zrotation Xrotation Yrotation
                    JOINT LeftHandThumb3
                    {
                      OFFSET 2.000000 -0.200000 0.400000
                      CHANNELS 3 Zrotation Xrotation Yrotation
                      End Site
                      {
                        OFFSET 1.500000 0.000000 0.000000
                      }
                    }
                  }
                }
                JOINT LeftHandIndex1
                {
                  OFFSET 5.500000 0.600000 1.200000
                  CHANNELS 3 Zrotation Xrotation Yrotation
                  JOINT LeftHandIndex2
                  {
                    OFFSET 3.500000 0.000000 0.000000
                    CHANNELS 3 Zrotation Xrotation Yrotation
                    JOINT LeftHandIndex3
                    {
                      OFFSET 2.400000 0.000000 0.000000
                      CHANNELS 3 Zrotation Xrotation Yrotation
                      End Site
                      {
                        OFFSET 1.800000 0.000000 0.000000
                      }
                    }
                  }
                }
                JOINT LeftHandMiddle1
                {
                  OFFSET 5.800000 0.000000 0.000000
                  CHANNELS 3 Zrotation Xrotation Yrotation
                  JOINT LeftHandMiddle2
                  {
                    OFFSET 4.000000 0.000000 0.000000
                    CHANNELS 3 Zrotation Xrotation Yrotation
                    JOINT LeftHandMiddle3
                    {
                      OFFSET 2.800000 0.000000 0.000000
                      CHANNELS 3 Zrotation Xrotation Yrotation
                      End Site
                      {
                        OFFSET 2.000000 0.000000 0.000000
                      }
                    }
                  }
                }
                JOINT LeftHandRing1
                {
                  OFFSET 5.400000 -0.600000 -1.000000
                  CHANNELS 3 Zrotation Xrotation Yrotation
                  JOINT LeftHandRing2
                  {
                    OFFSET 3.600000 0.000000 0.000000
                    CHANNELS 3 Zrotation Xrotation Yrotation
                    JOINT LeftHandRing3
                    {
                      OFFSET 2.400000 0.000000 0.000000
                      CHANNELS 3 Zrotation Xrotation Yrotation
                      End Site
                      {
                        OFFSET 1.800000 0.000000 0.000000
                      }
                    }
                  }
                }
                JOINT LeftHandPinky1
                {
                  OFFSET 4.800000 -1.200000 -2.000000
                  CHANNELS 3 Zrotation Xrotation Yrotation
                  JOINT LeftHandPinky2
                  {
                    OFFSET 2.800000 0.000000 0.000000
                    CHANNELS 3 Zrotation Xrotation Yrotation
                    JOINT LeftHandPinky3
                    {
                      OFFSET 2.000000 0.000000 0.000000
                      CHANNELS 3 Zrotation Xrotation Yrotation
                      End Site
                      {
                        OFFSET 1.500000 0.000000 0.000000
                      }
                    }
                  }
                }
              }
            }
          }
        }
        JOINT RightShoulder
        {
          OFFSET -6.000000 8.000000 0.000000
          CHANNELS 3 Zrotation Xrotation Yrotation
          JOINT RightArm
          {
            OFFSET -12.000000 0.000000 0.000000
            CHANNELS 3 Zrotation Xrotation Yrotation
            JOINT RightForeArm
            {
              OFFSET -24.000000 0.000000 0.000000
              CHANNELS 3 Zrotation Xrotation Yrotation
              JOINT RightHand
              {
                OFFSET -22.000000 0.000000 0.000000
                CHANNELS 3 Zrotation Xrotation Yrotation
                JOINT RightHandThumb1
                {
                  OFFSET -2.500000 -1.200000 1.500000
                  CHANNELS 3 Zrotation Xrotation Yrotation
                  JOINT RightHandThumb2
                  {
                    OFFSET -2.500000 -0.400000 0.600000
                    CHANNELS 3 Zrotation Xrotation Yrotation
                    JOINT RightHandThumb3
                    {
                      OFFSET -2.000000 -0.200000 0.400000
                      CHANNELS 3 Zrotation Xrotation Yrotation
                      End Site
                      {
                        OFFSET -1.500000 0.000000 0.000000
                      }
                    }
                  }
                }
                JOINT RightHandIndex1
                {
                  OFFSET -5.500000 0.600000 1.200000
                  CHANNELS 3 Zrotation Xrotation Yrotation
                  JOINT RightHandIndex2
                  {
                    OFFSET -3.500000 0.000000 0.000000
                    CHANNELS 3 Zrotation Xrotation Yrotation
                    JOINT RightHandIndex3
                    {
                      OFFSET -2.400000 0.000000 0.000000
                      CHANNELS 3 Zrotation Xrotation Yrotation
                      End Site
                      {
                        OFFSET -1.800000 0.000000 0.000000
                      }
                    }
                  }
                }
                JOINT RightHandMiddle1
                {
                  OFFSET -5.800000 0.000000 0.000000
                  CHANNELS 3 Zrotation Xrotation Yrotation
                  JOINT RightHandMiddle2
                  {
                    OFFSET -4.000000 0.000000 0.000000
                    CHANNELS 3 Zrotation Xrotation Yrotation
                    JOINT RightHandMiddle3
                    {
                      OFFSET -2.800000 0.000000 0.000000
                      CHANNELS 3 Zrotation Xrotation Yrotation
                      End Site
                      {
                        OFFSET -2.000000 0.000000 0.000000
                      }
                    }
                  }
                }
                JOINT RightHandRing1
                {
                  OFFSET -5.400000 -0.600000 -1.000000
                  CHANNELS 3 Zrotation Xrotation Yrotation
                  JOINT RightHandRing2
                  {
                    OFFSET -3.600000 0.000000 0.000000
                    CHANNELS 3 Zrotation Xrotation Yrotation
                    JOINT RightHandRing3
                    {
                      OFFSET -2.400000 0.000000 0.000000
                      CHANNELS 3 Zrotation Xrotation Yrotation
                      End Site
                      {
                        OFFSET -1.800000 0.000000 0.000000
                      }
                    }
                  }
                }
                JOINT RightHandPinky1
                {
                  OFFSET -4.800000 -1.200000 -2.000000
                  CHANNELS 3 Zrotation Xrotation Yrotation
                  JOINT RightHandPinky2
                  {
                    OFFSET -2.800000 0.000000 0.000000
                    CHANNELS 3 Zrotation Xrotation Yrotation
                    JOINT RightHandPinky3
                    {
                      OFFSET -2.000000 0.000000 0.000000
                      CHANNELS 3 Zrotation Xrotation Yrotation
                      End Site
                      {
                        OFFSET -1.500000 0.000000 0.000000
                      }
                    }
                  }
                }
              }
            }
          }
        }
      }
    }
  }
  JOINT LeftUpLeg
  {
    OFFSET 10.000000 -5.000000 0.000000
    CHANNELS 3 Zrotation Xrotation Yrotation
    JOINT LeftLeg
    {
      OFFSET 0.000000 -42.000000 0.000000
      CHANNELS 3 Zrotation Xrotation Yrotation
      JOINT LeftFoot
      {
        OFFSET 0.000000 -42.000000 4.000000
        CHANNELS 3 Zrotation Xrotation Yrotation
        End Site
        {
          OFFSET 0.000000 0.000000 12.000000
        }
      }
    }
  }
  JOINT RightUpLeg
  {
    OFFSET -10.000000 -5.000000 0.000000
    CHANNELS 3 Zrotation Xrotation Yrotation
    JOINT RightLeg
    {
      OFFSET 0.000000 -42.000000 0.000000
      CHANNELS 3 Zrotation Xrotation Yrotation
      JOINT RightFoot
      {
        OFFSET 0.000000 -42.000000 4.000000
        CHANNELS 3 Zrotation Xrotation Yrotation
        End Site
        {
          OFFSET 0.000000 0.000000 12.000000
        }
      }
    }
  }
}
MOTION
Frames: 4
Frame Time: 0.033533
0.0934 0.2095 -0.0539 -9.2157 6.9498 -4.2144 4.2407 -0.2898 3.9019 0.0000 0.0000 0.0000 0.0000 0.0000 0.0000 23.7422 57.0361 16.4931 0.0000 0.0000 0.0000 0.0000 0.0000 0.0000 -81.0129 -0.9016 7.7941 5.5809 -4.2868 3.5283 -7.1990 8.5671 -10.2851 -37.5730 -1.8113 -5.3214 7.4858 -1.2065 18.2866 18.2221 -3.0037 18.5696 -35.3646 -0.6298 -1.9755 -43.5040 4.0619 10.1577 -11.2549 0.7298 7.3961 -45.5120 -0.4608 -1.0986 -38.9513 2.6954 7.6119 -13.2206 0.5239 4.5188 -48.6474 0.6135 1.3571 -38.2707 -0.4568 -1.3166 -14.1860 0.5570 4.4743 -45.8770 1.2929 3.0543 -39.3698 -1.1803 -3.2983 -13.5310 0.5838 4.9180 0.0000 0.0000 0.0000 77.5305 -25.2820 20.9596 -173.2324 27.5569 -50.8782 -3.1987 -3.7112 5.7292 -26.1258 -0.3932 -1.6946 -6.5562 1.1637 20.1085 -4.1775 0.3926 10.7337 -32.0750 7.6097 26.0533 -7.8550 0.8561 12.4208 -4.7298 0.1500 3.6299 -36.5564 10.1790 30.1813 -23.4918 11.6726 52.3577 -26.0704 21.9995 80.0324 -41.4210 10.7057 27.8378 -82.1364 25.8093 29.4633 -54.7160 7.6426 14.7112 -46.5694 11.6207 26.6071 -94.8765 14.4210 13.2540 -56.1407 0.8466 1.5874 7.7634 -10.5315 2.6343 0.0000 0.0000 0.0000 0.0000 0.0000 0.0000 7.7175 2.6436 4.5477 0.0000 0.0000 0.0000 0.0000 0.0000 0.0000
0.0914 0.2067 -0.0569 -9.4166 6.4342 -4.6281 4.3306 -0.3285 4.3303 0.0000 0.0000 0.0000 0.0000 0.0000 0.0000 24.4695 57.2304 16.9878 0.0000 0.0000 0.0000 0.0000 0.0000 0.0000 -81.0203 -0.5089 7.7144 5.7824 -4.1773 3.3797 -7.1904 8.3773 -10.0504 -37.5730 -1.8113 -5.3214 7.4858 -1.2065 18.2866 18.2221 -3.0037 18.5696 -35.3646 -0.6298 -1.9755 -43.5040 4.0619 10.1577 -11.2549 0.7298 7.3961 -45.5120 -0.4608 -1.0986 -38.9513 2.6954 7.6119 -13.2206 0.5239 4.5188 -48.6474 0.6135 1.3571 -38.2707 -0.4568 -1.3166 -14.1860 0.5570 4.4743 -45.8770 1.2929 3.0543 -39.3698 -1.1803 -3.2983 -13.5310 0.5838 4.9180 0.0000 0.0000 0.0000 77.6764 -24.8366 20.8686 -172.4704 28.8120 -51.1602 -2.1072 -1.7965 3.2230 -26.0898 -0.7124 -3.0739 -10.2454 1.8239 20.1372 -6.3881 0.5372 9.6031 -35.1507 9.1875 28.4678 -9.3066 1.0797 13.2068 -5.3109 0.3141 6.7643 -38.6950 11.0615 30.8347 -24.2012 9.5512 42.5791 -31.7703 25.0530 75.9611 -42.3074 11.2923 28.6647 -68.9482 22.2015 31.8954 -63.6390 12.3529 19.7865 -45.5271 12.2789 28.7557 -85.9436 17.9077 19.1990 -67.5836 5.4111 8.0781 7.8441 -9.9799 3.1117 0.0000 0.0000 0.0000 0.0000 0.0000 0.0000 7.8453 3.6535 5.1257 0.0000 0.0000 0.0000 0.0000 0.0000 0.0000
0.0920 0.2063 -0.0588 -9.4433 6.5693 -4.6399 4.3206 -0.3281 4.3340 0.0000 0.0000 0.0000 0.0000 0.0000 0.0000 23.7774 56.7581 16.4551 0.0000 0.0000 0.0000 0.0000 0.0000 0.0000 -81.0672 -0.6498 7.7016 5.8312 -3.9504 3.1462 -7.4744 13.6043 -17.5774 -37.1719 -2.6530 -7.8786 4.1513 -0.6304 17.2625 18.7088 -3.1988 19.2406 -33.7497 -1.4851 -4.8930 -46.4566 0.5094 1.1869 -12.6540 0.4707 4.2429 -44.4938 -2.3977 -5.8575 -41.7327 0.2884 0.7565 -13.5182 0.1442 1.2164 -48.0622 -1.5053 -3.3752 -38.1367 -2.0729 -5.9921 -14.6644 0.1590 1.2358 -46.2910 -0.0671 -0.1571 -38.8081 -2.4919 -7.0668 -14.7406 0.2351 1.8173 0.0000 0.0000 0.0000 77.5284 -25.0256 20.9813 -172.1421 28.8190 -51.0622 -3.9859 3.3362 -0.5173 -29.5521 -0.0594 -0.2251 -10.9426 1.7227 17.8414 -3.6710 0.1356 4.2284 -36.9192 9.2598 27.2733 -9.9286 1.1623 13.3209 -6.0504 0.3565 6.7380 -40.8651 11.2959 29.7339 -27.5185 10.5740 41.4040 -33.9947 31.5058 85.4021 -44.6122 11.0905 26.6282 -82.5179 19.7415 22.4378 -61.6679 6.8920 11.5208 -49.2309 11.5770 24.9527 -92.2965 11.6047 11.1516 -62.2641 1.1832 1.9588 7.6698 -10.1742 3.0944 0.0000 0.0000 0.0000 0.0000 0.0000 0.0000 8.0855 3.3471 5.1125 0.0000 0.0000 0.0000 0.0000 0.0000 0.0000
0.0898 0.2050 -0.0617 -9.6268 6.7308 -4.6791 4.3779 -0.3343 4.3582 0.0000 0.0000 0.0000 0.0000 0.0000 0.0000 23.4878 56.4349 16.2653 0.0000 0.0000 0.0000 0.0000 0.0000 0.0000 -81.3554 -0.7935 7.7003 6.4278 -3.6939 2.7656 -8.1346 10.0052 -12.4997 -38.6776 -2.4979 -7.1093 7.6483 -1.2102 17.9569 17.7137 -2.8687 18.2574 -34.2687 -0.7292 -2.3649 -44.4221 2.8320 6.9289 -12.1255 0.6208 5.8396 -44.6131 -0.3509 -0.8554 -39.2719 1.8877 5.2874 -13.6061 0.3034 2.5432 -46.6521 0.3043 0.7057 -38.8064 -1.3941 -3.9568 -14.5778 0.3553 2.7771 -43.4739 0.7688 1.9282 -40.9350 -1.8842 -5.0456 -14.3880 0.4433 3.5106 0.0000 0.0000 0.0000 77.7651 -25.2128 20.8763 -171.5445 29.8871 -51.3985 -0.8738 1.0909 -0.4380 -28.1220 -0.2232 -0.8913 -9.2479 1.5421 18.8950 1.2986 0.0534 -4.7095 -37.5772 12.1226 34.6686 8.7889 -4.4187 53.3156 23.8384 -23.1399 88.2477 -42.4884 13.1049 32.9205 -24.9093 22.4215 83.8088 -18.5991 14.4081 75.3308 -46.6366 12.9270 29.4515 -104.3389 30.5090 23.9141 -46.3764 3.8892 9.0639 -51.5518 12.4729 25.5021 -122.6047 12.4319 6.8244 -38.3223 -1.1071 -3.1853 7.7494 -9.9918 3.1316 0.0000 0.0000 0.0000 0.0000 0.0000 0.0000 8.2954 3.4327 5.1784 0.0000 0.0000 0.0000 0.0000 0.0000 0.0000
